<svg xmlns="http://www.w3.org/2000/svg" width="55" height="35" viewBox="0 0 55 35">
  <g id="Groupe_303" data-name="Groupe 303" transform="translate(11671 -2079)">
    <g id="Groupe_190" data-name="Groupe 190" transform="translate(-12004.584 2053)">
      <path id="Ligne_53" data-name="Ligne 53" d="M44.833.5H0v-1H44.833Z" transform="translate(338.667 33.5)"/>
      <path id="Ligne_54" data-name="Ligne 54" d="M44.833.5H0v-1H44.833Z" transform="translate(338.667 43.5)"/>
      <path id="Ligne_55" data-name="Ligne 55" d="M44.833.5H0v-1H44.833Z" transform="translate(338.667 53.5)"/>
    </g>
    <path id="Rectangle_427" data-name="Rectangle 427" d="M11,1A10.011,10.011,0,0,0,1,11V24A10.011,10.011,0,0,0,11,34H44A10.011,10.011,0,0,0,54,24V11A10.011,10.011,0,0,0,44,1H11m0-1H44A11,11,0,0,1,55,11V24A11,11,0,0,1,44,35H11A11,11,0,0,1,0,24V11A11,11,0,0,1,11,0Z" transform="translate(-11671 2079)"/>
  </g>
</svg>
