<?xml version="1.0" encoding="UTF-8"?>
<svg id="Calque_2" data-name="Calque 2" xmlns="http://www.w3.org/2000/svg" viewBox="0 0 83.02 56.69">
  <defs>
    <style>
      .cls-1 {
        fill: #ffcf02;
      }

      .cls-1, .cls-2 {
        stroke-width: 0px;
      }

      .cls-2 {
        fill: #507a2e;
      }
    </style>
  </defs>
  <g id="Calque_1-2" data-name="Calque 1">
    <g>
      <circle class="cls-1" cx="41.51" cy="14.34" r="14.34"/>
      <path class="cls-2" d="m28.7,55.98c-.92-1.03-.73-2.82.44-3.83,1.99-1.71,3.99-4.01,5.49-6.7,3.09-5.57,2.35-10.24-1.33-12.28-3.41-1.89-6.61-.72-11.66,3.93-5.93,5.72-11.37,8.26-16.52,5.41-5.68-3.15-6.89-10.94-2.34-19.14,1.65-2.98,3.4-5.16,4.97-6.68,1.04-1,2.53-1,3.35,0h0c.84,1.01.66,2.68-.41,3.69-1.3,1.23-2.81,2.98-4.12,5.35-3.19,5.76-1.43,9.6,1.06,10.98,3.41,1.89,6.51.25,11.69-4.49,6.34-5.82,11.33-7.8,16.69-4.83,5.63,3.12,7.83,10.64,2.31,20.59-1.73,3.12-4.18,6.12-6.38,8.04-1.02.89-2.4.89-3.21-.01l-.03-.03Z"/>
      <path class="cls-2" d="m54.29,55.78c-.81.9-2.19.91-3.21.01-2.2-1.92-4.65-4.93-6.38-8.04-5.52-9.95-3.32-17.47,2.31-20.59,5.36-2.97,10.35-.99,16.69,4.83,5.18,4.74,8.28,6.38,11.69,4.49,2.49-1.38,4.25-5.22,1.06-10.98-1.31-2.36-2.82-4.12-4.12-5.35-1.07-1.02-1.25-2.68-.41-3.69h0c.82-.99,2.31-1,3.35,0,1.57,1.52,3.32,3.7,4.97,6.68,4.55,8.2,3.34,15.99-2.34,19.14-5.14,2.85-10.59.31-16.52-5.41-5.05-4.65-8.25-5.82-11.66-3.93-3.68,2.04-4.42,6.71-1.33,12.28,1.5,2.7,3.5,4.99,5.49,6.7,1.17,1.01,1.36,2.8.44,3.83l-.03.03Z"/>
    </g>
  </g>
</svg>