<?xml version="1.0" encoding="UTF-8"?>
<svg id="Calque_2" data-name="Calque 2" xmlns="http://www.w3.org/2000/svg" viewBox="0 0 85.04 8.94">
  <defs>
    <style>
      .cls-1 {
        fill: #507a2e;
        stroke-width: 0px;
      }
    </style>
  </defs>
  <g id="Calque_1-2" data-name="Calque 1">
    <g>
      <path class="cls-1" d="m2.25,6.65c.09.56.46.8,1.04.8.52,0,.77-.17.77-.51,0-.39-.29-.53-1.35-.8C.58,5.61.2,4.83.2,3.89.2,2.8.99,1.69,3.14,1.69s2.99,1.04,3.08,2.18h-2.23c-.05-.36-.23-.68-.83-.68-.39,0-.63.14-.63.45s.24.44,1.29.71c2.23.58,2.62,1.37,2.62,2.35,0,1.31-1.02,2.24-3.2,2.24-2.05,0-3.1-.94-3.24-2.29h2.25Z"/>
      <path class="cls-1" d="m10.19,7.56l-.33,1.23h-2.29l2.08-6.95h3.1l2.16,6.95h-2.46l-.34-1.23h-1.93Zm1.57-1.65c-.22-.85-.46-1.86-.61-2.56h-.04c-.15.78-.36,1.71-.58,2.56h1.23Z"/>
      <path class="cls-1" d="m16.32,8.79V1.84h2.78c.64,1.58,1.36,3.25,1.65,4.18h.05c-.07-.75-.11-1.97-.11-3.05v-1.13h2.16v6.95h-2.66c-.49-1.2-1.42-3.4-1.75-4.4h-.03c.08.72.07,1.96.07,3.16v1.24h-2.17Z"/>
      <path class="cls-1" d="m26.32,3.5h-1.91v-1.65h6.16v1.65h-1.89v5.3h-2.37V3.5Z"/>
      <path class="cls-1" d="m37.44,6.08h-3.06v1.06h3.45l-.26,1.65h-5.46V1.84h5.45v1.65h-3.19v.94h3.06v1.65Zm.26-6.08l-2.06,1.35h-1.83l1.34-1.35h2.55Z"/>
      <path class="cls-1" d="m44.11,6.65c.09.56.46.8,1.04.8.52,0,.77-.17.77-.51,0-.39-.29-.53-1.35-.8-2.13-.53-2.51-1.3-2.51-2.24,0-1.1.79-2.2,2.94-2.2s2.99,1.04,3.08,2.18h-2.23c-.05-.36-.23-.68-.83-.68-.39,0-.63.14-.63.45s.24.44,1.29.71c2.23.58,2.62,1.37,2.62,2.35,0,1.31-1.02,2.24-3.2,2.24-2.05,0-3.1-.94-3.24-2.29h2.25Z"/>
      <path class="cls-1" d="m55.23,6.08h-3.06v1.06h3.45l-.26,1.65h-5.46V1.84h5.45v1.65h-3.19v.94h3.06v1.65Z"/>
      <path class="cls-1" d="m57.21,8.79V1.84h2.78c.64,1.58,1.36,3.25,1.65,4.18h.05c-.07-.75-.11-1.97-.11-3.05v-1.13h2.16v6.95h-2.66c-.49-1.2-1.42-3.4-1.75-4.4h-.03c.08.72.07,1.96.07,3.16v1.24h-2.17Z"/>
      <path class="cls-1" d="m68.15,1.84v6.95h-2.37V1.84h2.37Z"/>
      <path class="cls-1" d="m77.11,5.32c0,1.99-1.19,3.62-3.65,3.62s-3.56-1.67-3.56-3.62,1.2-3.63,3.67-3.63c2.3,0,3.55,1.6,3.55,3.63Zm-4.78-.03c0,1.24.32,2.07,1.19,2.07s1.16-.84,1.16-2.02c0-1.26-.27-2.06-1.19-2.06-.83,0-1.17.75-1.17,2.02Z"/>
      <path class="cls-1" d="m81.15,6.24v2.55h-2.29V1.84h3.7c1.72,0,2.48.9,2.48,1.93,0,.98-.61,1.46-1.1,1.65.56.18.98.74.98,1.85v.24c0,.41.02,1,.08,1.28h-2.26c-.11-.3-.14-.79-.14-1.47v-.25c0-.51-.12-.83-.86-.83h-.58Zm0-1.52h.73c.61,0,.82-.27.82-.69s-.25-.67-.82-.67h-.73v1.35Z"/>
    </g>
  </g>
</svg>