<svg xmlns="http://www.w3.org/2000/svg" width="336" height="60.15" viewBox="0 0 336 60.15">
  <g id="Groupe_305" data-name="Groupe 305" transform="translate(-416 -1310)">
    <path id="Tracé_146" data-name="Tracé 146" d="M83.1,33.835l1.67-10.884H74.326V15.886c0-2.977,1.45-5.882,6.131-5.882h4.748V.737A57.752,57.752,0,0,0,76.776,0c-8.6,0-14.22,5.217-14.22,14.651v8.3H52.993V33.835h9.563V60.15h11.77V33.835Z" transform="translate(452.007 1310)"/>
    <g id="Groupe_280" data-name="Groupe 280" transform="translate(0 3)">
      <path id="Tracé_147" data-name="Tracé 147" d="M50.09,78.29,54.4,62.2a29.771,29.771,0,1,1,11.86,11.76ZM67.067,67.928l1.019.608a24.164,24.164,0,1,0-8.271-8.194l.627,1.024L58.035,70.35Z" transform="translate(365.91 1288.858)"/>
      <path id="Tracé_148" data-name="Tracé 148" d="M79.867,39.938c-1.275-.762-2.929-1.609-4.428-1-1.151.468-1.883,2.271-2.63,3.188a1.1,1.1,0,0,1-1.425.309,20.04,20.04,0,0,1-10.007-8.572,1.223,1.223,0,0,1,.154-1.674,6.755,6.755,0,0,0,1.818-2.954,6.442,6.442,0,0,0-.812-3.492c-.6-1.3-1.28-3.153-2.58-3.89a3.539,3.539,0,0,0-3.835.573,7.792,7.792,0,0,0-2.7,6.171,8.886,8.886,0,0,0,.244,1.958,16.326,16.326,0,0,0,1.878,4.333A34.59,34.59,0,0,0,57.5,37.876a30.344,30.344,0,0,0,8.507,7.9,25.883,25.883,0,0,0,5.3,2.52c2.082.687,3.935,1.4,6.176.976a7.475,7.475,0,0,0,5.6-4.164,3.644,3.644,0,0,0,.259-2.127c-.319-1.464-2.3-2.336-3.487-3.043" transform="translate(377.582 1301.617)" fill-rule="evenodd"/>
    </g>
    <path id="Tracé_149" data-name="Tracé 149" d="M92.378,24.063a24.855,24.855,0,0,1-6.068,1.729c.975-.165,2.409-1.93,2.983-2.645a11.1,11.1,0,0,0,2.012-3.67c.055-.106.094-.24-.012-.318a.354.354,0,0,0-.322.028,31,31,0,0,1-7.2,2.755.48.48,0,0,1-.5-.134,5.4,5.4,0,0,0-.629-.641,12.728,12.728,0,0,0-3.482-2.138,12.15,12.15,0,0,0-5.348-.861A12.741,12.741,0,0,0,68.753,19.6a13.039,13.039,0,0,0-4.091,3.34,12.5,12.5,0,0,0-2.44,4.893A13.206,13.206,0,0,0,62.088,33c.039.291.016.33-.248.291-9.879-1.47-18.069-5.007-24.718-12.583-.291-.326-.444-.326-.68.024-2.912,4.362-1.5,11.369,2.134,14.811.487.46.982.92,1.521,1.34a12.64,12.64,0,0,1-4.771-1.34c-.287-.181-.432-.075-.46.252a7.612,7.612,0,0,0,.079,1.415,12.684,12.684,0,0,0,7.812,10.107,7.447,7.447,0,0,0,1.584.483,14.207,14.207,0,0,1-4.676.145c-.342-.067-.472.106-.342.432,2.059,5.608,6.5,7.278,9.832,8.229.444.079.888.079,1.336.185-.028.039-.055.039-.079.079-1.1,1.682-4.932,2.936-6.712,3.556a24,24,0,0,1-10.2,1.3c-.546-.079-.664-.075-.81,0-.153.094-.02.224.157.365.7.46,1.4.868,2.122,1.261a33.809,33.809,0,0,0,6.814,2.727c12.249,3.38,26.043.9,35.242-8.241,7.219-7.176,9.754-17.071,9.754-26.978,0-.389.456-.6.727-.81a23.87,23.87,0,0,0,4.8-4.987,1.517,1.517,0,0,0,.318-.955v-.051c0-.157,0-.11-.248,0" transform="translate(548.586 1296.858)"/>
    <g id="Groupe_279" data-name="Groupe 279" transform="translate(0 3)">
      <path id="Tracé_150" data-name="Tracé 150" d="M45.35,2.244a2.5,2.5,0,1,0,2.5,2.5,2.5,2.5,0,0,0-2.5-2.5" transform="translate(691.15 1316.558)"/>
      <path id="Tracé_151" data-name="Tracé 151" d="M52.221,3.188a15,15,0,1,0,15,15,15.019,15.019,0,0,0-15-15m0,24.606a9.608,9.608,0,1,1,9.6-9.606,9.617,9.617,0,0,1-9.6,9.606" transform="translate(669.784 1318.812)"/>
      <path id="Tracé_152" data-name="Tracé 152" d="M75.953,60H52A18.043,18.043,0,0,1,33.976,41.977V18.019A18.043,18.043,0,0,1,52,0H75.953A18.043,18.043,0,0,1,93.976,18.019V41.977A18.043,18.043,0,0,1,75.953,60M52,5.643A12.388,12.388,0,0,0,39.624,18.019V41.977A12.388,12.388,0,0,0,52,54.352H75.953a12.392,12.392,0,0,0,12.38-12.375V18.019A12.392,12.392,0,0,0,75.953,5.643Z" transform="translate(658.024 1307)"/>
    </g>
  </g>
</svg>
